<?xml version="1.0" encoding="UTF-8"?>
<svg width="971.34" height="687.87" version="1.1" viewBox="0 0 971.33868 687.87469" xml:space="preserve" xmlns="http://www.w3.org/2000/svg" xmlns:cc="http://creativecommons.org/ns#" xmlns:dc="http://purl.org/dc/elements/1.1/" xmlns:rdf="http://www.w3.org/1999/02/22-rdf-syntax-ns#"><metadata><rdf:RDF><cc:Work rdf:about=""><dc:format>image/svg+xml</dc:format><dc:type rdf:resource="http://purl.org/dc/dcmitype/StillImage"/></cc:Work></rdf:RDF></metadata><defs><clipPath id="a"><path d="m0 515.91h728.5v-515.91h-728.5z"/></clipPath></defs><g transform="matrix(1.3333 0 0 -1.3333 0 687.87)"><g transform="translate(229.66 374.4)"><path d="m0 0h18.497v6.585h-11.179v21.872h-7.318zm21.505 0h7.318v28.457h-7.318zm11.708 0h7.196v14.919l9.838-14.919h6.504v28.457h-7.195v-14.31l-9.472 14.31h-6.871zm27.725 0h7.317v10.976h8.09v-10.976h7.358v28.457h-7.358v-10.814h-8.09v10.814h-7.317zm25.001 0h7.521l1.626 5.122h8.943l1.667-5.122h7.683l-10.041 28.619h-7.399zm10.976 10.976 2.643 8.334 2.642-8.334z" fill="#4b362a"/></g><g clip-path="url(#a)"><g transform="translate(217.69 414.28)"><path d="m0 0c-14.414 0-26.139-11.727-26.139-26.141 0-14.413 11.725-26.138 26.139-26.138h137.33c14.414 0 26.138 11.725 26.138 26.138 0 14.414-11.724 26.141-26.138 26.141zm137.33-54.93h-137.33c-15.875 0-28.792 12.915-28.792 28.789 0 15.876 12.917 28.792 28.792 28.792h137.33c15.875 0 28.791-12.916 28.791-28.792 0-15.874-12.916-28.789-28.791-28.789" fill="#4b362a"/></g><g transform="translate(624.31 271.83)"><path d="m0 0c1.291 10.846-3.357 11.363-3.357 11.363-4.649 0-15.496-9.297-20.144-16.27 0.775-8.006-0.516-31.248-0.516-31.248 17.302 5.424 22.984 28.407 24.017 36.155m-116.21-97.101c-12.913-7.748-11.88-44.419-4.132-41.32 4.907 12.138 4.132 41.32 4.132 41.32m-147.98 20.918c-7.49-2.84-36.93-17.819-26.342-25.566 3.358-2.583 19.627-2.583 22.984 5.165 6.457 8.264 3.358 20.401 3.358 20.401m299.57 26.599c-16.786-34.347-20.918-36.154-30.215-36.154s-15.495 8.006-29.957 32.798c0 0-1.033-24.276-3.357-28.924-2.066-15.237-12.913-15.495-17.561-15.495-8.006-1.034-14.978 3.357-18.336 9.039-1.879 3.758-2.238 6.007-2.308 29.12-5.545-5.381-12.204-6.865-16.286-11.56 0 0 3.874-78.765-10.329-83.672-14.204-4.907-22.21-3.615-31.248 0.517-29.698 27.891-3.098 63.012 7.231 76.44l0.258 40.287c-8.78-21.176-18.852-35.379-22.725-38.479-9.556-5.164-13.171 0-15.753 5.94-1.243 2.858-1.887 5.304-2.221 10.343-3.818-9.545-11.777-23.359-27.736-32.81-7.489-4.649-7.231-4.132-17.303-4.907-13.686 0.258-15.753 24.534-14.978 26.6 0.079 2.986 0.151 7.787 0.218 13.785-5.782-5.673-14.164-8.621-14.164-8.621-0.774-11.104 2.583-14.977-7.23-33.056-13.945-22.209-52.424-14.719-56.556-12.137-11.105 6.715-8.522 17.561-3.874 24.275 8.78 8.006 22.984 15.754 34.605 20.66 0 0 0 3.874-4.39 9.038-0.775 0-7.747 5.165-13.687 5.165-2.536 0.212-4.776 0.668-6.765 1.32-7.56-30.384-25.678-35.666-29.906-35.666-18.594 0.516-16.786 25.308-17.561 25.308 0 0-9.555-22.984-35.638-31.248-25.05-3.615-35.896 11.364-37.446 17.303-5.423 19.368-0.774 51.391 0 61.721 5.165 31.248 5.94 35.896 12.654 36.412 24.275 1.808 25.309-6.972 25.309-14.719-1.292-26.084-2.066-70.244-1.292-77.217 1.808-20.659 21.693 4.907 26.858 18.078 6.198 14.72 7.748 77.732 9.555 79.54 1.033 5.164 12.654 6.456 13.171-4.132 1.808-1.808-5.682-74.633 2.582-94.518 7.148-10.614 17.928 14.557 23.657 24.018-9.897 10.135-5.461 29.531-3.514 36.153 0 0 6.973 27.633 29.699 28.407 6.714 1.808 23.242 2.324 27.89-3.873 15.496-20.402 5.423-38.996-1.549-33.831-7.49 6.457 2.066 25.567-12.912 21.951-24.276-20.66-13.171-43.643-9.814-44.418 22.726-5.165 32.023-11.363 32.798-13.946 14.203 6.715 8.005 5.165 16.269 11.363 0.467 0.614 0.933 1.063 1.391 1.404 0.294 35.996 0.484 90.013 0.675 93.63 0 0-11.362-0.516-17.044-0.258-14.979 2.583-4.391 14.72-0.517 13.945 5.682-0.516 16.786 1.809 17.82 1.809 0 0 0.257 20.143 5.423 35.379 0.774 2.066 1.807 5.94 2.84 5.94 14.203 6.198 17.303-4.39 19.111-10.33 2.582-12.654 0.516-26.341 1.549-26.341 0 0 11.879 1.808 19.626 2.84 17.82-2.065 6.973-13.17 1.55-13.428-7.747-0.775-17.819-3.616-20.918-4.907 0 0-3.615-134.03 1.808-132.22 11.104-1.807 21.176 30.989 22.209 30.989 1.699 3.022 3.568 4.165 5.172 4.116-7e-3 3.121-7e-3 6.625-7e-3 10.605-1.291 35.122 0 54.232 3.874 58.622 2.582 3.099 7.747 3.099 9.038 0v-71.534c1.292-14.462 1.292-14.978 8.006-4.649 9.297 16.011 17.044 39.77 19.627 60.172 1.291 9.038 13.171 10.846 18.594 7.747 18.077-16.269 15.753-76.7 15.753-76.7 1.291 0 9.296 3.358 14.719 10.589 0.581 0.755 1.193 1.364 1.809 1.866-1e-3 1.642-1e-3 3.327-1e-3 5.107 0 45.967-2.323 74.374-5.681 92.709-1.033 3.358-4.132 20.402 1.033 25.308 1.033 1.034 4.648 3.358 5.681 3.358 9.297 2.324 25.825-3.358 29.957-9.039 6.456-8.522 12.654-48.549 10.847-61.978 23.241 22.208 31.506 10.329 34.863 4.648 10.846-21.693-12.396-54.748-21.693-62.238 0 0 5.424-26.857 19.884-25.049 5.166 0.775 15.238 24.275 16.27 26.34 3.874 8.006 12.138 1.034 10.589-4.648m-456.06 3.616c-3.099-17.303-12.654-29.957-22.21-29.957-20.401-0.258-33.313 31.506-33.313 31.506 1.033-39.769-11.105-47.259-14.204-50.357-4.648-3.1-14.203-1.55-18.852 3.098-4.648 3.099-4.906 3.099-6.456 55.265 0 36.413-1.55 56.814-3.099 66.369-3.099 15.753-3.099 28.407 0 29.957 3.099 3.098 17.045 3.615 26.341 0.775 18.852-8.523 16.27-71.793 16.27-71.793 3.099 1.55 20.143 14.72 26.341 20.918 34.863 50.358-4.906 72.567-54.748 61.204-6.198 0-7.748 0.258-7.748 3.358-1.549 4.647 9.039 9.554 23.242 10.329 29.957 1.808 48.292-3.357 60.43-22.984 12.138-19.626 1.033-37.962-3.615-47.516-16.528-28.666-38.995-37.963-38.995-37.963 0-3.099 14.203-25.308 18.851-29.957 9.555-11.104 11.364-9.555 17.561 7.748 6.198 20.659 17.303 18.852 14.204 0" fill="#4b362a"/></g></g></g></svg>
